<svg width="155" height="42" viewBox="0 0 155 42" fill="none" xmlns="http://www.w3.org/2000/svg">
<path d="M0.33333 39C0.33333 40.4728 1.52724 41.6667 3 41.6667C4.47276 41.6667 5.66666 40.4728 5.66666 39C5.66666 37.5273 4.47276 36.3333 3 36.3333C1.52724 36.3333 0.33333 37.5273 0.33333 39ZM50 39L50 39.5L50 39ZM115.5 39L115.5 39.5L115.707 39.5L115.854 39.3536L115.5 39ZM148.833 3.00001C148.833 4.47277 150.027 5.66668 151.5 5.66668C152.973 5.66668 154.167 4.47277 154.167 3.00001C154.167 1.52725 152.973 0.333346 151.5 0.333346C150.027 0.333346 148.833 1.52725 148.833 3.00001ZM3 39.5L50 39.5L50 38.5L3 38.5L3 39.5ZM50 39.5L115.5 39.5L115.5 38.5L50 38.5L50 39.5ZM115.854 39.3536L151.854 3.35357L151.146 2.64646L115.146 38.6465L115.854 39.3536Z" fill="white"/>
</svg>
