<svg width="64" height="64" viewBox="0 0 64 64" fill="none" xmlns="http://www.w3.org/2000/svg">
<rect width="64" height="64" rx="4" fill="#D47E27"/>
<path d="M40.1902 36.2811C40.8677 33.5955 38.87 30.7759 35.7282 29.9833C32.5864 29.1907 29.4902 30.7252 28.8127 33.4108C28.1352 36.0964 30.1329 38.916 33.2747 39.7086C36.4165 40.5012 39.5127 38.9667 40.1902 36.2811Z" stroke="white" stroke-width="1.4" stroke-linecap="round" stroke-linejoin="round"/>
<path d="M40.1875 36.2805L45.6515 14.5625C44.7455 18.1505 52.0425 16.3925 51.1785 19.8175" stroke="white" stroke-width="1.4" stroke-linecap="round" stroke-linejoin="round"/>
<path d="M39.8869 25.1796C37.6669 23.8574 35.0517 23.3602 32.5013 23.7757C29.951 24.1912 27.6288 25.4927 25.9433 27.4512C24.2577 29.4098 23.3168 31.9 23.2859 34.4838C23.2551 37.0676 24.1363 39.5795 25.7746 41.5777C27.4129 43.5759 29.7034 44.9325 32.2431 45.4087C34.7828 45.8849 37.4091 45.4504 39.6601 44.1815C41.911 42.9126 43.6425 40.8906 44.5498 38.4711C45.4572 36.0517 45.4824 33.3898 44.6209 30.9536" stroke="white" stroke-width="1.4" stroke-linecap="round" stroke-linejoin="round"/>
<path d="M41.2077 19.9376C37.566 18.2096 33.4124 17.8954 29.5522 19.0558C25.6919 20.2162 22.4001 22.7686 20.3147 26.2181C18.2294 29.6676 17.4991 33.7686 18.2655 37.7259C19.0319 41.6833 21.2404 45.2151 24.4628 47.6367C27.6852 50.0583 31.692 51.1972 35.7063 50.8325C39.7207 50.4678 43.4566 48.6257 46.1899 45.6631C48.9232 42.7005 50.4592 38.8285 50.5 34.7978C50.5408 30.7672 49.0835 26.8649 46.4107 23.8476" stroke="white" stroke-width="1.4" stroke-linecap="round" stroke-linejoin="round"/>
<path d="M34.25 13.125C28.5478 13.125 23.0792 15.3902 19.0472 19.4222C15.0152 23.4542 12.75 28.9228 12.75 34.625" stroke="white" stroke-width="1.4" stroke-linecap="round" stroke-linejoin="round"/>
</svg>
