<svg width="64" height="64" viewBox="0 0 64 64" fill="none" xmlns="http://www.w3.org/2000/svg">
<rect width="64" height="64" rx="4" fill="#D47E27"/>
<path fill-rule="evenodd" clip-rule="evenodd" d="M15.3289 11.7454H16.0289H31.9988H47.9687H48.6687V12.4454V30.9231V47.4689H49.7766H50.4766V48.1689V51.5565V52.2565H49.7766H14.221H13.521V51.5565V48.1689V47.4689H14.221H15.3289V30.9231V12.4454V11.7454ZM16.7289 47.4689H31.2988V31.6231H16.7289V47.4689ZM16.7289 30.2231H31.2988V13.1454H16.7289V30.2231ZM32.6988 13.1454V30.2231H47.2687V13.1454H32.6988ZM47.2687 31.6231H32.6988V47.4689H47.2687V31.6231ZM19.9624 20.3779L23.5782 14.8346L24.7508 15.5994L21.135 21.1428L19.9624 20.3779ZM22.6663 20.6983L24.7756 17.3107L25.964 18.0507L23.8548 21.4383L22.6663 20.6983ZM36.2482 40.6818L40.1653 35.1385L41.3087 35.9464L37.3915 41.4897L36.2482 40.6818ZM39.2388 41.3317L41.3481 37.9441L42.5365 38.6841L40.4273 42.0717L39.2388 41.3317ZM14.921 48.8689V50.8565H49.0766V48.8689H47.9687H31.9988H16.0289H14.921Z" fill="white"/>
</svg>
