<svg width="64" height="64" viewBox="0 0 64 64" fill="none" xmlns="http://www.w3.org/2000/svg">
<rect width="64" height="64" rx="4" fill="#D47E27"/>
<path d="M24.754 35.2267L23.3265 39.7806M24.754 35.2267L41.1702 39.9941M24.754 35.2267L21.4707 34.2661M41.1702 39.9941C36.0883 38.0017 36.6736 32.6328 37.6015 30.1974M41.1702 39.9941C44.8817 41.3461 49.0928 35.434 49.0928 31.9535M16.3317 25.6206C15.8749 28.6946 17.3786 32.0247 18.1875 33.3055L21.4707 34.2661M16.3317 25.6206C16.9027 21.7782 20.4715 18.932 22.3272 18.0781C25.4677 18.8608 53.7322 26.9014 55.1597 27.3284M16.3317 25.6206C21.2328 27.0438 31.7344 30.075 34.5323 30.815C35.6317 30.4829 36.6571 30.2903 37.6015 30.1974M55.1597 27.3284C56.5872 27.7553 53.4467 32.167 51.5196 32.6651C50.3205 32.3235 49.4021 32.0484 49.0928 31.9535M55.1597 27.3284C51.8051 27.613 49.307 28.3957 48.6646 28.6092M49.0928 31.9535C49.0928 31.1945 49.0072 29.463 48.6646 28.6092M48.6646 28.6092C48.2181 28.7576 47.5356 29.0174 46.8088 29.3524M37.6015 30.1974C38.3425 30.1245 39.0337 30.113 39.6713 30.1437M39.6713 30.1437C41.7032 30.2415 43.1923 30.7675 44.0252 31.0996C44.6909 30.436 45.7931 29.8207 46.8088 29.3524M39.6713 30.1437C38.6721 33.092 38.458 36.1517 41.5985 37.3613C44.739 38.571 47.9508 33.3688 46.8088 29.3524M21.4707 34.2661L20.0005 38.7181M17.8405 40.2787H10.6931M10.6931 40.2787C10.6931 38.5141 9.17043 37.5511 8.48047 37.2902C8.48047 39.8755 8.48047 45.3166 8.48047 46.3981C9.97934 45.9712 10.6931 44.6904 10.6931 43.3384M10.6931 40.2787V43.3384M17.8405 43.3384H10.6931" stroke="white" stroke-width="1.4" stroke-linecap="round"/>
<circle cx="20.7216" cy="41.8387" r="3.12" stroke="white" stroke-width="1.4" stroke-linecap="round"/>
<path d="M21.3733 21.9003L25.2 23.0321M19.3192 23.7177L25.6247 25.7282" stroke="white" stroke-width="1.4"/>
</svg>
