<svg width="64" height="64" viewBox="0 0 64 64" fill="none" xmlns="http://www.w3.org/2000/svg">
<rect width="64" height="64" rx="4" fill="#D47E27"/>
<path fill-rule="evenodd" clip-rule="evenodd" d="M21.9874 18.7304V12.4H23.7831C25.5312 12.4 26.9483 13.8171 26.9483 15.5652C26.9483 17.3133 25.5312 18.7304 23.7831 18.7304H21.9874ZM20.5874 11.6787C20.5874 11.3039 20.8913 11 21.2661 11H23.7831C26.0663 11 27.9581 12.6762 28.2949 14.8652H44.5555C46.8331 14.8652 48.6795 16.7116 48.6795 18.9891C48.6795 21.2667 46.8331 23.1131 44.5555 23.1131H20.3599C18.0991 23.1131 16.2664 24.9458 16.2664 27.2065C16.2664 29.4673 18.0991 31.3 20.3599 31.3H25.3378L24.7088 29.9609H24.7077H24.7022H24.6968H24.6913H24.6858H24.6803H24.6747H24.6692H24.6635H24.6579H24.6523H24.6466H24.6409H24.6351H24.6294H24.6236H24.6178H24.612H24.6061H24.6002H24.5943H24.5884H24.5824H24.5765H24.5705H24.5644H24.5584H24.5523H24.5462H24.5401H24.534H24.5278H24.5216H24.5154H24.5092H24.5029H24.4966H24.4903H24.484H24.4777H24.4713H24.4649H24.4585H24.4521H24.4456H24.4391H24.4326H24.4261H24.4196H24.413H24.4064H24.3998H24.3932H24.3866H24.3799H24.3732H24.3665H24.3598H24.3531H24.3463H24.3395H24.3327H24.3259H24.3191H24.3122H24.3053H24.2984H24.2915H24.2846H24.2776H24.2707H24.2637H24.2567H24.2496H24.2426H24.2355H24.2285H24.2214H24.2142H24.2071H24.2H24.1928H24.1856H24.1784H24.1712H24.164H24.1567H24.1494H24.1422H24.1349H24.1276H24.1202H24.1129H24.1055H24.0981H24.0907H24.0833H24.0759H24.0685H24.061H24.0536H24.0461H24.0386H24.0311H24.0235H24.016H24.0084H24.0009H23.9933H23.9857H23.9781H23.9704H23.9628H23.9552H23.9475H23.9398H23.9321H23.9244H23.9167H23.909H23.9012H23.8935H23.8857H23.8779H23.8701H23.8623H23.8545H23.8467H23.8389H23.831H23.8232H23.8153H23.8074H23.7995H23.7916H23.7837H23.7758H23.7678H23.7599H23.7519H23.744H23.736H23.728H23.72H23.712H23.704H23.696H23.6879H23.6799H23.6718H23.6638H23.6557H23.6476H23.6395H23.6314H23.6233H23.6152H23.6071H23.599H23.5908H23.5827H23.5745H23.5664H23.5582H23.55H23.5419H23.5337H23.5255H23.5173H23.5091H23.5008H23.4926H23.4844H23.4762H23.4679H23.4597H23.4514H23.4432H23.4349H23.4266H23.4183H23.4101H23.4018H23.3935H23.3852H23.3769H23.3686H23.3603H23.352H23.3436H23.3353H23.327H23.3187H23.3103H23.302H23.2936H23.2853H23.277H23.2686H23.2602H23.2519H23.2435H23.2352H23.2268H23.2184H23.2101H23.2017H23.1933H23.1849H23.1765H23.1682H23.1598H23.1514H23.143H23.1346H23.1262H23.1178H23.1094H23.1011H23.0927H23.0843H23.0759H23.0675H23.0591H23.0507H23.0423H23.0339H23.0255H23.0171H23.0087H23.0003H22.9919H22.9835H22.9751H22.9667H22.9583H22.95H22.9416H22.9332H22.9248H22.9164H22.908H22.8997H22.8913H22.8829H22.8745H22.8662H22.8578H22.8494H22.8411H22.8327H22.8244H22.816H22.8076H22.7993H22.791H22.7826H22.7743H22.766H22.7576H22.7493H22.741H22.7327H22.7244H22.716H22.7077H22.6994H22.6912H22.6829H22.6746H22.6663H22.658H22.6498H22.6415H22.6333H22.625H22.6168H22.6085H22.6003H22.5921H22.5838H22.5756H22.5674H22.5592H22.551H22.5429H22.5347H22.5265H22.5184H22.5102H22.502H22.4939H22.4858H22.4777H22.4695H22.4614H22.4533H22.4452H22.4372H22.4291H22.421H22.413H22.4049H22.3969H22.3889H22.3808H22.3728H22.3648H22.3568H22.3489H22.3409H22.3329H22.325H22.317H22.3091H22.3012H22.2933H22.2854H22.2775H22.2696H22.2618H22.2539H22.2461H22.2382H22.2304H22.2226H22.2148H22.207H22.1993H22.1915H22.1838H22.176H22.1683H22.1606H22.1529H22.1452H22.1375H22.1299H22.1222H22.1146H22.107H22.0994H22.0918H22.0842H22.0767H22.0691H22.0616H22.0541H22.0466H22.0391H22.0316H22.0242H22.0167H22.0093H22.0019H21.9945H21.9871H21.9797H21.9724H21.965H21.9577V28.5609H21.965H21.9724H21.9797H21.9871H21.9945H22.0019H22.0093H22.0167H22.0242H22.0316H22.0391H22.0466H22.0541H22.0616H22.0691H22.0767H22.0842H22.0918H22.0994H22.107H22.1146H22.1222H22.1299H22.1375H22.1452H22.1529H22.1606H22.1683H22.176H22.1838H22.1915H22.1993H22.207H22.2148H22.2226H22.2304H22.2382H22.2461H22.2539H22.2618H22.2696H22.2775H22.2854H22.2933H22.3012H22.3091H22.317H22.325H22.3329H22.3409H22.3489H22.3568H22.3648H22.3728H22.3808H22.3889H22.3969H22.4049H22.413H22.421H22.4291H22.4372H22.4452H22.4533H22.4614H22.4695H22.4777H22.4858H22.4939H22.502H22.5102H22.5184H22.5265H22.5347H22.5429H22.551H22.5592H22.5674H22.5756H22.5838H22.5921H22.6003H22.6085H22.6168H22.625H22.6333H22.6415H22.6498H22.658H22.6663H22.6746H22.6829H22.6912H22.6994H22.7077H22.716H22.7244H22.7327H22.741H22.7493H22.7576H22.766H22.7743H22.7826H22.791H22.7993H22.8076H22.816H22.8244H22.8327H22.8411H22.8494H22.8578H22.8662H22.8745H22.8829H22.8913H22.8997H22.908H22.9164H22.9248H22.9332H22.9416H22.95H22.9583H22.9667H22.9751H22.9835H22.9919H23.0003H23.0087H23.0171H23.0255H23.0339H23.0423H23.0507H23.0591H23.0675H23.0759H23.0843H23.0927H23.1011H23.1094H23.1178H23.1262H23.1346H23.143H23.1514H23.1598H23.1682H23.1765H23.1849H23.1933H23.2017H23.2101H23.2184H23.2268H23.2352H23.2435H23.2519H23.2602H23.2686H23.277H23.2853H23.2936H23.302H23.3103H23.3187H23.327H23.3353H23.3436H23.352H23.3603H23.3686H23.3769H23.3852H23.3935H23.4018H23.4101H23.4183H23.4266H23.4349H23.4432H23.4514H23.4597H23.4679H23.4762H23.4844H23.4926H23.5008H23.5091H23.5173H23.5255H23.5337H23.5419H23.55H23.5582H23.5664H23.5745H23.5827H23.5908H23.599H23.6071H23.6152H23.6233H23.6314H23.6395H23.6476H23.6557H23.6638H23.6718H23.6799H23.6879H23.696H23.704H23.712H23.72H23.728H23.736H23.744H23.7519H23.7599H23.7678H23.7758H23.7837H23.7916H23.7995H23.8074H23.8153H23.8232H23.831H23.8389H23.8467H23.8545H23.8623H23.8701H23.8779H23.8857H23.8935H23.9012H23.909H23.9167H23.9244H23.9321H23.9398H23.9475H23.9552H23.9628H23.9704H23.9781H23.9857H23.9933H24.0009H24.0084H24.016H24.0235H24.0311H24.0386H24.0461H24.0536H24.061H24.0685H24.0759H24.0833H24.0907H24.0981H24.1055H24.1129H24.1202H24.1276H24.1349H24.1422H24.1494H24.1567H24.164H24.1712H24.1784H24.1856H24.1928H24.2H24.2071H24.2142H24.2214H24.2285H24.2355H24.2426H24.2496H24.2567H24.2637H24.2707H24.2776H24.2846H24.2915H24.2984H24.3053H24.3122H24.3191H24.3259H24.3327H24.3395H24.3463H24.3531H24.3598H24.3665H24.3732H24.3799H24.3866H24.3932H24.3998H24.4064H24.413H24.4196H24.4261H24.4326H24.4391H24.4456H24.4521H24.4585H24.4649H24.4713H24.4777H24.484H24.4903H24.4966H24.5029H24.5092H24.5154H24.5216H24.5278H24.534H24.5401H24.5462H24.5523H24.5584H24.5644H24.5705H24.5765H24.5824H24.5884H24.5943H24.6002H24.6061H24.612H24.6178H24.6236H24.6294H24.6351H24.6409H24.6466H24.6523H24.6579H24.6635H24.6692H24.6747H24.6803H24.6858H24.6913H24.6968H24.7022H24.7077H24.7131H24.7184H24.7238H24.7291H24.7344H24.7396H24.7449H24.7501H24.7552H24.7604H24.7655H24.7706H24.7757H24.7807H24.7857H24.7907H24.7957H24.8006H24.8055H24.8104H24.8152H24.82H24.8248H24.8295H24.8343H24.839H24.8436H24.8482H24.8529H24.8574H24.862H24.8665H24.871H24.8754H24.8798H24.8842H24.8886H24.8929H24.8972H24.9015H24.9057H24.9099H24.9141H24.9182H24.9223H24.9264H24.9305H24.9345H24.9384H24.9424H24.9463H24.9502H24.954H24.9579H24.9616H24.9654H24.9691H24.9728H24.9764H24.9801H24.9836H24.9872H24.9907H24.9942H24.9976H25.0011H25.0044H25.0078H25.0111H25.0144H25.0176H25.0208H25.024H25.0271H25.0302H25.0333H25.0363H25.0393H25.0423H25.0452H25.0481H25.0509H25.0537H25.0565H25.0592H25.0619H25.0646H25.0672H25.0698H25.0724H25.0749H25.0774H25.0798H25.0822H25.0846H25.0869H25.0892H25.0915H25.0937H25.0959H25.098H25.1001H25.1022H25.1042H25.1062H25.1081H25.11H25.1119H25.1137H25.1155H25.1173H25.119H25.1206H25.1223H25.1238H25.1254H25.1269H25.1284H25.1298H25.1312H25.1325H25.1338H25.1351H25.1363H25.1375H25.1386H25.1397H25.1408H25.1418H25.1428H25.1437H25.1446H25.1455H25.1463H25.147H25.1477H25.1484H25.149H25.1496H25.1502H25.1507H25.1512H25.1516H25.1519H25.1523H25.1526H25.1528H25.153H25.1532H25.1533H25.1533H28.1208V29.9609H26.2555L27.0735 31.7024L28.8961 35.5829L29.8238 37.5578C30.7122 36.1301 32.0354 34.4115 33.7062 32.9189C35.6925 31.1443 38.2274 29.6397 41.15 29.3947L40.8994 28.0165L40.7494 27.1913H41.5881H44.3273C44.6971 27.1913 44.9968 26.8915 44.9968 26.5218C44.9968 26.152 44.6971 25.8522 44.3273 25.8522H39.7621V24.4522H44.3273C45.4703 24.4522 46.3968 25.3788 46.3968 26.5218C46.3968 27.6647 45.4703 28.5913 44.3273 28.5913H42.4269L42.6711 29.9346L43.0654 32.1031L43.7146 35.6735C43.9171 35.6594 44.1216 35.6522 44.3277 35.6522C49.1182 35.6522 53.0016 39.5357 53.0016 44.3261C53.0016 49.1166 49.1182 53 44.3277 53C39.5373 53 35.6538 49.1166 35.6538 44.3261C35.6538 40.2233 38.5024 36.7857 42.3298 35.8834L41.8066 33.0061C41.2411 33.1539 40.6054 33.5129 39.9118 34.0897C38.9884 34.8575 38.0466 35.9413 37.1437 37.1778C35.3396 39.6484 33.7636 42.6276 32.8675 44.6139L32.6816 45.0261H32.2295H28.32C27.9636 49.4892 24.2287 53 19.6739 53C14.8834 53 11 49.1166 11 44.3261C11 39.5357 14.8834 35.6522 19.6739 35.6522C21.8422 35.6522 23.8246 36.4478 25.3453 37.763L27.4179 35.7287L25.9953 32.7H20.3599C17.3259 32.7 14.8664 30.2405 14.8664 27.2065C14.8664 24.1726 17.3259 21.7131 20.3599 21.7131H44.5555C46.0599 21.7131 47.2794 20.4935 47.2794 18.9891C47.2794 17.4848 46.0599 16.2652 44.5555 16.2652H28.2949C27.9581 18.4542 26.0663 20.1304 23.7831 20.1304H21.2661C20.8913 20.1304 20.5874 19.8266 20.5874 19.4517V11.6787ZM37.0538 44.3261C37.0538 40.9111 39.4072 38.0457 42.5807 37.2634L43.5631 42.6666C42.9356 42.9555 42.5 43.5899 42.5 44.3261C42.5 45.3346 43.3176 46.1522 44.3261 46.1522C45.3346 46.1522 46.1522 45.3346 46.1522 44.3261C46.1522 43.5471 45.6643 42.882 44.9775 42.6196L43.9668 37.061C44.0864 37.0552 44.2067 37.0522 44.3277 37.0522C48.345 37.0522 51.6016 40.3088 51.6016 44.3261C51.6016 48.3434 48.345 51.6 44.3277 51.6C40.3105 51.6 37.0538 48.3434 37.0538 44.3261ZM31.1273 43.6261H28.32C28.1727 41.7814 27.4482 40.0994 26.3273 38.7608L28.0485 37.0713L29.13 39.3737L31.1273 43.6261ZM26.9146 43.6261C26.7748 42.1626 26.2015 40.8256 25.3244 39.7452L21.3704 43.6261H26.9146ZM19.6739 37.0522C21.4508 37.0522 23.0789 37.6893 24.3421 38.7476L20.3759 42.6405C20.1594 42.55 19.9217 42.5 19.6723 42.5C18.6638 42.5 17.8462 43.3176 17.8462 44.3261C17.8462 45.3346 18.6638 46.1522 19.6723 46.1522C20.4328 46.1522 21.0848 45.6872 21.3594 45.0261H26.9146C26.5624 48.715 23.4551 51.6 19.6739 51.6C15.6566 51.6 12.4 48.3434 12.4 44.3261C12.4 40.3088 15.6566 37.0522 19.6739 37.0522ZM32.2324 42.6859L30.5457 39.0949C31.3261 37.6661 32.7457 35.6543 34.6389 33.9629C36.5299 32.2735 38.8342 30.955 41.4018 30.7796L41.5557 31.6259C40.6665 31.8337 39.8079 32.3553 39.0167 33.0133C37.9699 33.8837 36.9506 35.0682 36.013 36.3521C34.5152 38.4033 33.1799 40.7726 32.2324 42.6859ZM20.0984 44.3261C20.0984 44.5614 19.9076 44.7522 19.6723 44.7522C19.437 44.7522 19.2462 44.5614 19.2462 44.3261C19.2462 44.0908 19.437 43.9 19.6723 43.9C19.9076 43.9 20.0984 44.0908 20.0984 44.3261ZM44.7522 44.3261C44.7522 44.5614 44.5614 44.7522 44.3261 44.7522C44.0908 44.7522 43.9 44.5614 43.9 44.3261C43.9 44.0908 44.0908 43.9 44.3261 43.9C44.5614 43.9 44.7522 44.0908 44.7522 44.3261ZM16.1084 12.8261C16.1084 12.5739 16.3128 12.3695 16.5649 12.3695H20.5867V13.2826H16.5649C16.3128 13.2826 16.1084 13.0782 16.1084 12.8261ZM16.5649 17.8478C16.3128 17.8478 16.1084 18.0522 16.1084 18.3043C16.1084 18.5564 16.3128 18.7608 16.5649 18.7608H20.5867V17.8478H16.5649Z" fill="white"/>
</svg>
