<svg width="64" height="64" viewBox="0 0 64 64" fill="none" xmlns="http://www.w3.org/2000/svg">
<rect width="64" height="64" rx="4" fill="#D47E27"/>
<path d="M43.6983 44.8807L38.2227 49.5524M38.2227 49.5524L43.6983 54.224M38.2227 49.5524C41.0766 49.5524 47.5213 49.5524 50.4682 49.5524C54.1518 49.5524 55.1473 47.2709 53.3553 43.903C51.9217 41.2087 48.1071 34.8462 47.1115 32.8906" stroke="white" stroke-width="1.4" stroke-linecap="round"/>
<path d="M37.3393 43.698C36.2394 43.1634 35.0856 42.5353 34.0078 41.6524M29.5926 32.8412C29.7876 34.2845 30.0969 35.5288 30.493 36.6084M30.493 36.6084L27.7592 35.7185M30.493 36.6084C30.8319 37.5321 31.2343 38.3352 31.683 39.0392M31.683 39.0392L33.9152 35.6719M31.683 39.0392C32.3701 40.1172 33.1657 40.9626 34.0078 41.6524M34.0078 41.6524C36.8304 40.0228 38.1346 37.3929 36.9745 34.685C35.8143 31.9772 33.4468 31.1357 33.5643 28.0799C33.6818 25.0242 32.6714 24.4383 30.5779 26.1667C28.4843 27.895 23.4134 32.3817 26.397 38.7135C28.333 42.5323 31.6893 42.991 34.0078 41.6524Z" stroke="white" stroke-width="1.4" stroke-linecap="round"/>
<path d="M17.7347 40.7522L16.737 33.6706M16.737 33.6706L10.1054 36.3474M16.737 33.6706C15.2688 36.2137 11.9533 41.9564 10.4372 44.5822C8.54216 47.8646 9.89294 49.8273 13.5649 49.8182C16.5025 49.811 21.4549 49.8788 23.5639 49.9136" stroke="white" stroke-width="1.4" stroke-linecap="round"/>
<path d="M36.0002 23.5533L43.0336 26.3922M43.0336 26.3922L44.0917 18.8817M43.0336 26.3922C41.4764 23.6951 36.6416 15.7362 35.0337 12.9513C33.0238 9.47006 30.5048 9.66993 28.5659 13.0474C27.0148 15.7495 22.2497 24.0696 21.0993 25.9883" stroke="white" stroke-width="1.4" stroke-linecap="round"/>
</svg>
